<svg xmlns="http://www.w3.org/2000/svg" xmlns:xlink="http://www.w3.org/1999/xlink" xmlns:lucid="lucid" width="759" height="1343.06"><g transform="translate(-280 -80)" lucid:page-tab-id="0_0"><path d="M410 100c11.05 0 20 9.64 20 21.53 0 11.9-8.95 21.53-20 21.53h-60c-11.05 0-20-9.64-20-21.53 0-11.9 8.95-21.53 20-21.53z" stroke="#333" fill="#fff"/><use xlink:href="#a" transform="matrix(1,0,0,1,335,105) translate(4.660101996527793 25.06141493055555)"/><path d="M300 204.36c0-4.42 3.55-8.45 7.94-9l144.12-17.94c4.4-.54 7.94 2.6 7.94 7.02v104c0 4.4-3.58 8-8 8H308c-4.42 0-8-3.6-8-8z" stroke="#333" fill="#fff"/><use xlink:href="#b" transform="matrix(1,0,0,1,305,201.43602300008018) translate(16.574999999999996 48.6)"/><use xlink:href="#c" transform="matrix(1,0,0,1,305,201.43602300008018) translate(50.574999999999996 48.6)"/><path d="M410 1360c11.05 0 20 9.64 20 21.53 0 11.9-8.95 21.53-20 21.53h-60c-11.05 0-20-9.64-20-21.53 0-11.9 8.95-21.53 20-21.53z" stroke="#333" fill="#fff"/><use xlink:href="#d" transform="matrix(1,0,0,1,335,1365.0000000000803) translate(20.79606119791668 25.06141493055555)"/><path d="M380 144.06v25.45" stroke="#333" fill="none"/><path d="M380.5 144.08h-1v-.52h1z" fill="#333"/><path d="M380 184.27L375.36 170h9.28z" stroke="#333" fill="#333"/><path d="M373.6 341.24c3.53-2.65 9.27-2.65 12.8 0l67.2 50.4c3.53 2.65 3.53 6.95 0 9.6l-67.2 50.4c-3.53 2.65-9.27 2.65-12.8 0l-67.2-50.4c-3.53-2.65-3.53-6.95 0-9.6z" stroke="#333" fill="#fff"/><use xlink:href="#e" transform="matrix(1,0,0,1,305,341.43602300008024) translate(6.599999999999994 58.6)"/><use xlink:href="#f" transform="matrix(1,0,0,1,305,341.43602300008024) translate(96.45 58.6)"/><path d="M579.5 374.44c0-4.42 3.58-8 8-8h144c4.42 0 8 3.58 8 8v44c0 4.4-3.58 8-8 8h-144c-4.42 0-8-3.6-8-8z" stroke="#333" fill="#fff"/><use xlink:href="#g" transform="matrix(1,0,0,1,591.4983448518478,378.43602300008024) translate(25.574999999999996 21.6)"/><path d="M380 297.44v25.03" stroke="#333" fill="none"/><path d="M380.5 297.45h-1v-.5h1z" fill="#333"/><path d="M380 337.23l-4.64-14.26h9.28z" stroke="#333" fill="#333"/><path d="M503.14 396.94h-46v-1h46zm59.47 0h-30.1v-1h30.1z" fill="#333"/><path d="M457.15 396.94h-.53l.04-1h.5zM577.38 396.44l-14.27 4.63v-9.27z" fill="#333"/><path d="M579 396.44l-16.4 5.32V391.1zm-15.4 3.94l12.16-3.94-12.15-3.95z" fill="#333"/><use xlink:href="#h" transform="matrix(1,0,0,1,503.1446231285615,385.63602300008023) translate(0.005000000000000782 14.4)"/><path d="M373.6 501.24c3.53-2.65 9.27-2.65 12.8 0l67.2 50.4c3.53 2.65 3.53 6.95 0 9.6l-67.2 50.4c-3.53 2.65-9.27 2.65-12.8 0l-67.2-50.4c-3.53-2.65-3.53-6.95 0-9.6z" stroke="#333" fill="#fff"/><use xlink:href="#i" transform="matrix(1,0,0,1,305,501.43602300008024) translate(28.775 58.6)"/><use xlink:href="#j" transform="matrix(1,0,0,1,305,501.43602300008024) translate(72.325 58.6)"/><path d="M380.5 465.64h-1v-11.12h1z" fill="#333"/><path d="M380.5 454.03v.5h-1v-.5zM380 497.23l-3.25-10h6.5z" fill="#333"/><path d="M380 498.85l-3.77-11.6h1.05l2.72 8.36 2.72-8.36h1.05z" fill="#333"/><use xlink:href="#k" transform="matrix(1,0,0,1,368.525,465.63602300008023) translate(0.005000000000000782 14.4)"/><path d="M660 464.06l-.42 3.2-1.25 3-2 2.6-2.6 2-3 1.24-3.2.42H431.1l-3 .4-2.77 1.14-2.4 1.84-1.82 2.4-1.14 2.74-.4 3.02v20.67h-1V488l.43-3.22 1.23-3 2-2.6 2.6-2 3-1.23 3.2-.43h216.44l3-.4 2.77-1.13 2.4-1.85 1.82-2.4 1.14-2.74.4-3v-36.56h1z" fill="#333"/><path d="M660 427.45h-1v-.5h1zM419.07 523.5l-4.64-14.27h9.27z" fill="#333"/><path d="M419.07 525.1l-5.32-16.37h10.64zm-3.95-15.37l3.95 12.15 3.95-12.15zM504.9 556.94h-47.76v-1h47.77zm61.25 0h-31.9v-1h31.9z" fill="#333"/><path d="M457.15 556.94h-.53l.04-1h.5zM580.92 556.44l-14.27 4.63v-9.27z" fill="#333"/><path d="M582.54 556.44l-16.4 5.32V551.1zm-15.4 3.94l12.16-3.94-12.15-3.95z" fill="#333"/><use xlink:href="#h" transform="matrix(1,0,0,1,504.9146386317877,545.6360230000803) translate(0.005000000000000782 14.4)"/><path d="M660 627.94l-.42 3.2-1.25 3-2 2.6-2.6 2-3 1.24-3.2.42h-216.2l-3.03.4-2.76 1.14-2.4 1.83-1.82 2.4-1.14 2.75-.4 3.02v26.08h-1v-26.15l.42-3.2 1.25-3 2-2.6 2.6-2 3-1.25 3.2-.42h216.22l3-.4 2.77-1.13 2.4-1.84 1.82-2.4 1.14-2.74.4-3.03V585.9h1z" fill="#333"/><path d="M660 585.92h-1v-.52h1zM419.28 692.78l-4.63-14.26h9.27z" fill="#333"/><path d="M419.28 694.4l-5.32-16.38h10.65zm-3.94-15.38l3.94 12.14 3.95-12.14z" fill="#333"/><path d="M605.52 533.3c3.3-2.95 9.56-5.33 13.98-5.33h104c8.83 0 16 12.74 16 28.47 0 15.72-7.17 28.46-16 28.46h-104c-4.42 0-10.68-2.38-13.98-5.3l-20.04-17.85c-3.3-2.93-3.3-7.7 0-10.63z" stroke="#333" fill="#fff"/><use xlink:href="#l" transform="matrix(1,0,0,1,584.4983448518478,532.9680114115815) translate(20.124999999999993 27.1)"/><use xlink:href="#m" transform="matrix(1,0,0,1,584.4983448518478,532.9680114115815) translate(83.975 27.1)"/><path d="M373.6 670.36c3.53-2.65 9.27-2.65 12.8 0l67.2 50.4c3.53 2.65 3.53 6.95 0 9.6l-67.2 50.4c-3.53 2.65-9.27 2.65-12.8 0l-67.2-50.4c-3.53-2.65-3.53-6.95 0-9.6z" stroke="#333" fill="#fff"/><use xlink:href="#i" transform="matrix(1,0,0,1,305,670.5638506351943) translate(34.77499999999999 47.8)"/><use xlink:href="#n" transform="matrix(1,0,0,1,305,670.5638506351943) translate(78.32499999999999 47.8)"/><use xlink:href="#o" transform="matrix(1,0,0,1,305,670.5638506351943) translate(42.025 69.4)"/><path d="M504.9 726.06h-47.76v-1h47.77zm61.25 0h-31.9v-1h31.9z" fill="#333"/><path d="M457.15 726.06h-.53l.04-1h.5zM580.92 725.56l-14.27 4.64v-9.27z" fill="#333"/><path d="M582.54 725.56l-16.4 5.33v-10.66zm-15.4 3.95l12.16-3.94-12.15-3.94z" fill="#333"/><use xlink:href="#h" transform="matrix(1,0,0,1,504.9146386317877,714.7638506351943) translate(0.005000000000000782 14.4)"/><path d="M659.5 755.03v25.05c0 6.63-5.37 12-12 12H444c-6.63 0-12 5.37-12 12v9.16" stroke="#333" fill="none"/><path d="M660 755.04h-1v-.5h1z" fill="#333"/><path d="M432 828l-4.64-14.26h9.28z" stroke="#333" fill="#333"/><path d="M605.52 702.4c3.3-2.92 9.56-5.3 13.98-5.3h104c8.83 0 16 12.74 16 28.46 0 15.73-7.17 28.47-16 28.47h-104c-4.42 0-10.68-2.38-13.98-5.32l-20.04-17.82c-3.3-2.94-3.3-7.7 0-10.63z" stroke="#333" fill="#fff"/><use xlink:href="#p" transform="matrix(1,0,0,1,584.4983448518478,702.0958390466956) translate(45.574999999999996 16.299999999999997)"/><use xlink:href="#q" transform="matrix(1,0,0,1,584.4983448518478,702.0958390466956) translate(30.074999999999996 37.9)"/><path d="M380.5 630.2h-1v-15.68h1z" fill="#333"/><path d="M380.5 614.03v.5h-1v-.5zM380 666.36l-4.64-14.27h9.28z" fill="#333"/><path d="M380 667.98l-5.26-16.18h10.52zm-3.95-15.4l3.95 12.16 3.95-12.15z" fill="#333"/><use xlink:href="#k" transform="matrix(1,0,0,1,368.525,630.1999368176373) translate(0.005000000000000782 14.4)"/><path d="M300 838.13c0-4.42 3.58-8 8-8h144c4.42 0 8 3.58 8 8v50.3c0 4.42-3.58 8-8 8H308c-4.42 0-8-3.58-8-8z" stroke="#333" fill="#fff"/><path d="M316 830.13v66.3m128-66.3v66.3" stroke="#333" fill="none"/><use xlink:href="#r" transform="matrix(1,0,0,1,325,835.1277644527512) translate(14.024999999999999 21.299999999999997)"/><use xlink:href="#s" transform="matrix(1,0,0,1,325,835.1277644527512) translate(61.975 21.299999999999997)"/><use xlink:href="#t" transform="matrix(1,0,0,1,325,835.1277644527512) translate(14.524999999999999 42.9)"/><path d="M380.5 795.6h-1v-11.95h1z" fill="#333"/><path d="M380.5 783.16v.5h-1v-.52zM380 828l-3.52-10.8h7.04z" fill="#333"/><path d="M380 829.63l-4.04-12.44H377l3 9.2 3-9.2h1.04z" fill="#333"/><use xlink:href="#k" transform="matrix(1,0,0,1,368.525,795.5889570329798) translate(0.005000000000000782 14.4)"/><path d="M373.6 945.8c3.53-2.65 9.27-2.65 12.8 0l67.2 50.4c3.53 2.65 3.53 6.95 0 9.6l-67.2 50.4c-3.53 2.65-9.27 2.65-12.8 0l-67.2-50.4c-3.53-2.65-3.53-6.95 0-9.6z" stroke="#333" fill="#fff"/><use xlink:href="#u" transform="matrix(1,0,0,1,305,945.9999368176371) translate(28.525 58.6)"/><use xlink:href="#v" transform="matrix(1,0,0,1,305,945.9999368176371) translate(73.525 58.6)"/><use xlink:href="#w" transform="matrix(1,0,0,1,305,945.9999368176371) translate(101.475 58.6)"/><path d="M380 897.44v29.6" stroke="#333" fill="none"/><path d="M380.5 897.45h-1v-.5h1z" fill="#333"/><path d="M380 941.8l-4.64-14.27h9.28z" stroke="#333" fill="#333"/><path d="M579.5 838.13c0-4.42 3.58-8 8-8h144c4.42 0 8 3.58 8 8v50.3c0 4.42-3.58 8-8 8h-144c-4.42 0-8-3.58-8-8z" stroke="#333" fill="#fff"/><path d="M595.5 830.13v66.3m128-66.3v66.3" stroke="#333" fill="none"/><use xlink:href="#r" transform="matrix(1,0,0,1,604.4983448518478,835.1277644527512) translate(14.574999999999996 21.299999999999997)"/><use xlink:href="#x" transform="matrix(1,0,0,1,604.4983448518478,835.1277644527512) translate(62.525 21.299999999999997)"/><use xlink:href="#t" transform="matrix(1,0,0,1,604.4983448518478,835.1277644527512) translate(14.524999999999999 42.9)"/><path d="M653.1 945.8c3.53-2.65 9.26-2.65 12.8 0l67.2 50.4c3.53 2.65 3.53 6.95 0 9.6l-67.2 50.4c-3.54 2.65-9.27 2.65-12.8 0l-67.2-50.4c-3.54-2.65-3.54-6.95 0-9.6z" stroke="#333" fill="#fff"/><use xlink:href="#u" transform="matrix(1,0,0,1,584.4983448518478,945.9999368176371) translate(28.525 58.6)"/><use xlink:href="#v" transform="matrix(1,0,0,1,584.4983448518478,945.9999368176371) translate(73.525 58.6)"/><use xlink:href="#y" transform="matrix(1,0,0,1,584.4983448518478,945.9999368176371) translate(101.475 58.6)"/><path d="M659.5 897.44v29.6" stroke="#333" fill="none"/><path d="M660 897.45h-1v-.5h1z" fill="#333"/><path d="M659.5 941.8l-4.64-14.27h9.27z" stroke="#333" fill="#333"/><path d="M859 838.13c0-4.42 3.58-8 8-8h144c4.4 0 8 3.58 8 8v50.3c0 4.42-3.6 8-8 8H867c-4.42 0-8-3.58-8-8z" stroke="#333" fill="#fff"/><path d="M875 830.13v66.3m128-66.3v66.3" stroke="#333" fill="none"/><use xlink:href="#r" transform="matrix(1,0,0,1,883.9966897036957,835.1277644527512) translate(7.574999999999996 21.299999999999997)"/><use xlink:href="#z" transform="matrix(1,0,0,1,883.9966897036957,835.1277644527512) translate(55.525 21.299999999999997)"/><use xlink:href="#t" transform="matrix(1,0,0,1,883.9966897036957,835.1277644527512) translate(14.524999999999999 42.9)"/><path d="M518.32 989.03l-.42 3.2-1.24 3-2 2.6-2.6 2-3 1.25-3.2.42h-48.72v-1h48.65l3-.4 2.76-1.14 2.4-1.83 1.82-2.4 1.14-2.75.4-3v-46.04h1zm44.3-125.25h-32.77l-3 .4-2.77 1.14-2.4 1.83-1.82 2.4-1.15 2.75-.38 3v46.04h-1v-46.1l.42-3.2 1.24-3 2-2.6 2.6-2 3-1.24 3.2-.42h32.83z" fill="#333"/><path d="M457.15 1001.5h-.53l.04-1h.5zM577.38 863.28l-14.27 4.64v-9.27z" fill="#333"/><path d="M579 863.28l-16.4 5.33v-10.64zm-15.4 3.95l12.16-3.95-12.15-3.95z" fill="#333"/><use xlink:href="#h" transform="matrix(1,0,0,1,503.1446231285615,921.3409152720265) translate(0.005000000000000782 14.4)"/><path d="M797.82 989.03l-.42 3.2-1.25 3-2 2.6-2.6 2-3 1.25-3.2.42h-48.7v-1h48.64l3-.4 2.76-1.14 2.4-1.83 1.82-2.4 1.14-2.75.4-3v-46.04h1zm44.3-125.25h-32.77l-3.02.4-2.75 1.14-2.4 1.83-1.82 2.4-1.15 2.75-.38 3v46.04h-1v-46.1l.42-3.2 1.24-3 2-2.6 2.6-2 3-1.24 3.2-.42h32.83z" fill="#333"/><path d="M736.65 1001.5h-.53l.04-1h.5zM856.88 863.28l-14.27 4.64v-9.27z" fill="#333"/><path d="M858.5 863.28l-16.4 5.33v-10.64zm-15.4 3.95l12.16-3.95-12.15-3.95z" fill="#333"/><use xlink:href="#h" transform="matrix(1,0,0,1,782.6429679804094,921.3409152720265) translate(0.005000000000000782 14.4)"/><path d="M326.02 1110.88c3.3-2.94 9.56-5.32 13.98-5.32h104c8.84 0 16 12.75 16 28.47 0 15.72-7.16 28.47-16 28.47H340c-4.42 0-10.68-2.38-13.98-5.32l-20.04-17.83c-3.3-2.94-3.3-7.7 0-10.64z" stroke="#333" fill="#fff"/><use xlink:href="#l" transform="matrix(1,0,0,1,305,1110.5638506351943) translate(27.074999999999996 16.299999999999997)"/><use xlink:href="#A" transform="matrix(1,0,0,1,305,1110.5638506351943) translate(90.92500000000001 16.299999999999997)"/><use xlink:href="#B" transform="matrix(1,0,0,1,305,1110.5638506351943) translate(51.525 37.9)"/><path d="M380.5 1071.03h-1v-11.94h1z" fill="#333"/><path d="M380.5 1058.6v.5h-1v-.52zM380 1103.45l-3.52-10.82h7.04z" fill="#333"/><path d="M380 1105.06l-4.04-12.43H377l3 9.2 3-9.2h1.04z" fill="#333"/><use xlink:href="#k" transform="matrix(1,0,0,1,368.525,1071.0250432154228) translate(0.005000000000000782 14.4)"/><path d="M523.27 1082.33H416.9l-2.9.68-2.17 1.8-1.2 2.63-.13 1.3-1-.1.15-1.46 1.37-3 2.53-2.08 3.25-.77h106.47zM660 1069.86l-.42 3.2-1.25 3-2 2.6-2.6 2-3 1.24-3.2.43h-101.3v-1h101.24l3-.4 2.77-1.14 2.4-1.85 1.82-2.4 1.14-2.74.4-3v-10.7h1z" fill="#333"/><path d="M660 1058.6v.5h-1v-.52zM410 1103.45l-4.64-14.27h9.28z" fill="#333"/><path d="M410 1105.06l-5.32-16.38h10.64zm-3.95-15.38l3.95 12.15 3.95-12.15z" fill="#333"/><use xlink:href="#k" transform="matrix(1,0,0,1,523.2741724259238,1071.0250432154228) translate(0.005000000000000782 14.4)"/><path d="M939.5 1122.06l-.42 3.22-1.25 3-2 2.6-2.6 2-3 1.23-3.2.43H476.9v-1h450.06l3.02-.4 2.76-1.14 2.4-1.84 1.82-2.4 1.14-2.74.4-3.02V897.44h1z" fill="#333"/><path d="M939.5 897.45h-1v-.5h1zM476.4 1138.67l-14.28-4.64 14.27-4.63z" fill="#333"/><path d="M476.9 1139.36l-16.4-5.33 16.4-5.32zm-13.16-5.33l12.15 3.95v-7.9z" fill="#333"/><path d="M373.6 1201.24c3.53-2.65 9.27-2.65 12.8 0l67.2 50.4c3.53 2.65 3.53 6.95 0 9.6l-67.2 50.4c-3.53 2.65-9.27 2.65-12.8 0l-67.2-50.4c-3.53-2.65-3.53-6.95 0-9.6z" stroke="#333" fill="#fff"/><use xlink:href="#C" transform="matrix(1,0,0,1,305,1201.4360230000802) translate(35.55 47.8)"/><use xlink:href="#n" transform="matrix(1,0,0,1,305,1201.4360230000802) translate(77.55 47.8)"/><use xlink:href="#D" transform="matrix(1,0,0,1,305,1201.4360230000802) translate(46.525 69.4)"/><path d="M585.52 1233.3c3.3-2.95 9.56-5.33 13.98-5.33h104c8.83 0 16 12.74 16 28.47 0 15.72-7.17 28.46-16 28.46h-104c-4.42 0-10.68-2.38-13.98-5.3l-20.04-17.85c-3.3-2.93-3.3-7.7 0-10.63z" stroke="#333" fill="#fff"/><g><use xlink:href="#l" transform="matrix(1,0,0,1,564.4983448518478,1232.9680114115815) translate(27.074999999999996 16.299999999999997)"/><use xlink:href="#A" transform="matrix(1,0,0,1,564.4983448518478,1232.9680114115815) translate(90.92500000000001 16.299999999999997)"/><use xlink:href="#B" transform="matrix(1,0,0,1,564.4983448518478,1232.9680114115815) translate(51.525 37.9)"/></g><path d="M494.9 1256.94h-37.76v-1h37.77zm51.25 0h-21.9v-1h21.9z" fill="#333"/><path d="M457.15 1256.94h-.53l.04-1h.5zM560.92 1256.44l-14.27 4.63v-9.27z" fill="#333"/><path d="M562.54 1256.44l-16.4 5.32v-10.65zm-15.4 3.94l12.16-3.94-12.15-3.95z" fill="#333"/><g><use xlink:href="#h" transform="matrix(1,0,0,1,494.9146386317876,1245.6360230000803) translate(0.005000000000000782 14.4)"/></g><path d="M381.26 1163.5v18.98" stroke="#333" fill="none"/><path d="M381.76 1163.5h-1v-.5h1z" fill="#333"/><path d="M381.26 1197.25l-4.63-14.27h9.27z" stroke="#333" fill="#333"/><path d="M380.5 1325.96h-1v-11.44h1z" fill="#333"/><path d="M380.5 1314.03v.5h-1v-.5zM380 1357.88l-3.35-10.32h6.7z" fill="#333"/><path d="M380 1359.5l-3.88-11.94h1.05l2.83 8.7 2.83-8.7h1.05z" fill="#333"/><g><use xlink:href="#k" transform="matrix(1,0,0,1,368.525,1325.9611609890874) translate(0.005000000000000782 14.4)"/></g><path d="M641.26 1310.48l-.42 3.22-1.24 3-2 2.6-2.6 2-3 1.23-3.2.42H413.36l-3.02.4-2.76 1.14-2.4 1.82-1.83 2.4-1.14 2.75-.4 3v8.65h-1v-8.7l.42-3.2 1.25-3 2-2.6 2.6-2 3-1.25 3.2-.42h215.43l3.02-.4 2.75-1.13 2.4-1.84 1.83-2.4 1.14-2.74.4-3.02v-24.52h1z" fill="#333"/><path d="M641.26 1285.92h-1v-.52h1zM401.33 1357.88l-4.63-14.26h9.27z" fill="#333"/><path d="M401.33 1359.5l-5.32-16.38h10.66zm-3.94-15.38l3.93 12.14 3.95-12.14z" fill="#333"/><defs><path fill="#333" d="M614-1226c-167 1-283 53-283 213 0 183 186 193 334 234 230 63 463 120 463 409 0 286-219 387-518 390C309 23 131-98 79-338l185-37c34 165 149 248 351 246 184-2 324-58 324-238 0-203-207-221-372-266-210-57-422-111-422-377 0-267 201-356 470-360 279-5 430 101 480 324l-188 33c-28-141-121-215-293-213" id="E"/><path fill="#333" d="M682 16c-209 0-323-80-324-285v-671H190v-142h170l58-282h120v282h432v142H538v652c2 114 60 155 182 155 106 0 209-16 297-34v137C921-4 806 16 682 16" id="F"/><path fill="#333" d="M1000-272c3 95 12 159 101 161 21 0 41-3 59-7V-6c-44 10-86 16-139 16-141 2-191-84-197-217h-6C748-76 648 20 446 20c-207 0-318-120-318-322 0-266 194-348 454-354l236-4c12-191-40-305-222-305-140 0-220 47-232 172l-188-17c33-204 181-292 423-292 255 0 401 118 401 364v466zm-683-27c0 109 63 184 175 182 166-3 259-96 306-217 24-65 20-120 20-200-232 7-501-28-501 235" id="G"/><path fill="#333" d="M839-1102c70 0 148 7 206 17v167c-112-18-268-36-363 15-129 69-208 203-208 395V0H294c-10-367 32-789-52-1082h171c21 75 41 161 48 250h5c67-152 152-270 373-270" id="H"/><g id="a"><use transform="matrix(0.013129340277777771,0,0,0.013129340277777771,0,0)" xlink:href="#E"/><use transform="matrix(0.013129340277777771,0,0,0.013129340277777771,16.135959201388882,0)" xlink:href="#F"/><use transform="matrix(0.013129340277777771,0,0,0.013129340277777771,32.271918402777764,0)" xlink:href="#G"/><use transform="matrix(0.013129340277777771,0,0,0.013129340277777771,48.40787760416664,0)" xlink:href="#H"/><use transform="matrix(0.013129340277777771,0,0,0.013129340277777771,64.54383680555553,0)" xlink:href="#F"/></g><path fill="#333" d="M143 4C61 4 22-44 18-125c-5-107 100-154 193-111 17 8 29 25 37 43l-32 9c-13-25-37-40-76-40-61 0-88 39-88 99 0 61 29 100 91 101 35 0 62-11 79-27v-45h-74v-28h105v86C228-13 192 4 143 4" id="I"/><path fill="#333" d="M100-194c63 0 86 42 84 106H49c0 40 14 67 53 68 26 1 43-12 49-29l28 8c-11 28-37 45-77 45C44 4 14-33 15-96c1-61 26-98 85-98zm52 81c6-60-76-77-97-28-3 7-6 17-6 28h103" id="J"/><path fill="#333" d="M59-47c-2 24 18 29 38 22v24C64 9 27 4 27-40v-127H5v-23h24l9-43h21v43h35v23H59v120" id="K"/><g id="b"><use transform="matrix(0.05,0,0,0.05,0,0)" xlink:href="#I"/><use transform="matrix(0.05,0,0,0.05,14,0)" xlink:href="#J"/><use transform="matrix(0.05,0,0,0.05,24,0)" xlink:href="#K"/></g><path fill="#333" d="M84 4C-5 8 30-112 23-190h32v120c0 31 7 50 39 49 72-2 45-101 50-169h31l1 190h-30c-1-10 1-25-2-33-11 22-28 36-60 37" id="L"/><path fill="#333" d="M135-143c-3-34-86-38-87 0 15 53 115 12 119 90S17 21 10-45l28-5c4 36 97 45 98 0-10-56-113-15-118-90-4-57 82-63 122-42 12 7 21 19 24 35" id="M"/><path fill="#333" d="M114-163C36-179 61-72 57 0H25l-1-190h30c1 12-1 29 2 39 6-27 23-49 58-41v29" id="N"/><path fill="#333" d="M190 0L58-211 59 0H30v-248h39L202-35l-2-213h31V0h-41" id="O"/><path fill="#333" d="M141-36C126-15 110 5 73 4 37 3 15-17 15-53c-1-64 63-63 125-63 3-35-9-54-41-54-24 1-41 7-42 31l-33-3c5-37 33-52 76-52 45 0 72 20 72 64v82c-1 20 7 32 28 27v20c-31 9-61-2-59-35zM48-53c0 20 12 33 32 33 41-3 63-29 60-74-43 2-92-5-92 41" id="P"/><path fill="#333" d="M210-169c-67 3-38 105-44 169h-31v-121c0-29-5-50-35-48C34-165 62-65 56 0H25l-1-190h30c1 10-1 24 2 32 10-44 99-50 107 0 11-21 27-35 58-36 85-2 47 119 55 194h-31v-121c0-29-5-49-35-48" id="Q"/><g id="c"><use transform="matrix(0.05,0,0,0.05,0,0)" xlink:href="#L"/><use transform="matrix(0.05,0,0,0.05,10,0)" xlink:href="#M"/><use transform="matrix(0.05,0,0,0.05,19,0)" xlink:href="#J"/><use transform="matrix(0.05,0,0,0.05,29,0)" xlink:href="#N"/><use transform="matrix(0.05,0,0,0.05,34.95,0)" xlink:href="#O"/><use transform="matrix(0.05,0,0,0.05,47.900000000000006,0)" xlink:href="#P"/><use transform="matrix(0.05,0,0,0.05,57.900000000000006,0)" xlink:href="#Q"/><use transform="matrix(0.05,0,0,0.05,72.85000000000001,0)" xlink:href="#J"/></g><path fill="#333" d="M162 0v-1349h919v156H353v422h668v154H353v461h769V0H162" id="R"/><path fill="#333" d="M706-1102c241 0 344 136 343 381V0H868v-695c1-168-57-273-220-268-190 6-283 138-283 336V0H185c-3-360 6-732-6-1082h170c4 54 7 126 8 185h3c63-121 164-204 346-205" id="S"/><path fill="#333" d="M865-914c-3-187-2-380-2-570h180v1261c0 76 1 155 6 223H877c-8-49-9-116-10-174h-5C801-44 708 26 530 26c-135 0-234-46-297-139s-95-232-95-419c0-377 131-566 392-566 176 0 271 63 335 184zm-286-51c-222 0-255 197-255 427 0 229 31 425 253 425 237 0 286-195 286-441 0-238-52-411-284-411" id="T"/><g id="d"><use transform="matrix(0.013129340277777771,0,0,0.013129340277777771,0,0)" xlink:href="#R"/><use transform="matrix(0.013129340277777771,0,0,0.013129340277777771,16.135959201388882,0)" xlink:href="#S"/><use transform="matrix(0.013129340277777771,0,0,0.013129340277777771,32.271918402777764,0)" xlink:href="#T"/></g><path fill="#333" d="M212-179c-10-28-35-45-73-45-59 0-87 40-87 99 0 60 29 101 89 101 43 0 62-24 78-52l27 14C228-24 195 4 139 4 59 4 22-46 18-125c-6-104 99-153 187-111 19 9 31 26 39 46" id="U"/><path fill="#333" d="M100-194c62-1 85 37 85 99 1 63-27 99-86 99S16-35 15-95c0-66 28-99 85-99zM99-20c44 1 53-31 53-75 0-43-8-75-51-75s-53 32-53 75 10 74 51 75" id="V"/><path fill="#333" d="M24-231v-30h32v30H24zM24 0v-190h32V0H24" id="W"/><path fill="#333" d="M9 0v-24l116-142H16v-24h144v24L44-24h123V0H9" id="X"/><g id="e"><use transform="matrix(0.05,0,0,0.05,0,0)" xlink:href="#U"/><use transform="matrix(0.05,0,0,0.05,12.950000000000001,0)" xlink:href="#L"/><use transform="matrix(0.05,0,0,0.05,22.950000000000003,0)" xlink:href="#M"/><use transform="matrix(0.05,0,0,0.05,31.950000000000003,0)" xlink:href="#K"/><use transform="matrix(0.05,0,0,0.05,36.95,0)" xlink:href="#V"/><use transform="matrix(0.05,0,0,0.05,46.95,0)" xlink:href="#Q"/><use transform="matrix(0.05,0,0,0.05,61.900000000000006,0)" xlink:href="#W"/><use transform="matrix(0.05,0,0,0.05,65.85000000000001,0)" xlink:href="#X"/><use transform="matrix(0.05,0,0,0.05,74.85000000000001,0)" xlink:href="#J"/></g><path fill="#333" d="M140-251c81 0 123 46 123 126C263-53 228-8 163 1c7 30 30 48 69 40v23c-55 16-95-15-103-61C56-3 17-48 17-125c0-80 42-126 123-126zm0 227c63 0 89-41 89-101s-29-99-89-99c-61 0-89 39-89 99S79-25 140-24" id="Y"/><path fill="#333" d="M103-251c84 0 111 97 45 133-19 10-37 24-39 52H78c0-63 77-55 77-114 0-30-21-42-52-43-32 0-53 17-56 46l-32-2c7-45 34-72 88-72zM77 0v-35h34V0H77" id="Z"/><g id="f"><use transform="matrix(0.05,0,0,0.05,0,0)" xlink:href="#Y"/><use transform="matrix(0.05,0,0,0.05,14,0)" xlink:href="#L"/><use transform="matrix(0.05,0,0,0.05,24,0)" xlink:href="#W"/><use transform="matrix(0.05,0,0,0.05,27.950000000000003,0)" xlink:href="#X"/><use transform="matrix(0.05,0,0,0.05,36.95,0)" xlink:href="#Z"/></g><g id="g"><use transform="matrix(0.05,0,0,0.05,0,0)" xlink:href="#U"/><use transform="matrix(0.05,0,0,0.05,12.950000000000001,0)" xlink:href="#L"/><use transform="matrix(0.05,0,0,0.05,22.950000000000003,0)" xlink:href="#M"/><use transform="matrix(0.05,0,0,0.05,31.950000000000003,0)" xlink:href="#K"/><use transform="matrix(0.05,0,0,0.05,36.95,0)" xlink:href="#V"/><use transform="matrix(0.05,0,0,0.05,46.95,0)" xlink:href="#Q"/><use transform="matrix(0.05,0,0,0.05,61.900000000000006,0)" xlink:href="#W"/><use transform="matrix(0.05,0,0,0.05,65.85000000000001,0)" xlink:href="#X"/><use transform="matrix(0.05,0,0,0.05,74.85000000000001,0)" xlink:href="#J"/></g><path fill="#333" d="M137-103V0h-34v-103L8-248h37l75 118 75-118h37" id="aa"/><g id="h"><use transform="matrix(0.05,0,0,0.05,0,0)" xlink:href="#aa"/><use transform="matrix(0.05,0,0,0.05,10.35,0)" xlink:href="#J"/><use transform="matrix(0.05,0,0,0.05,20.35,0)" xlink:href="#M"/></g><path fill="#333" d="M137 0h-34L2-248h35l83 218 83-218h36" id="ab"/><path fill="#333" d="M206 0h-36l-40-164L89 0H53L-1-190h32L70-26l43-164h34l41 164 42-164h31" id="ac"/><g id="i"><use transform="matrix(0.05,0,0,0.05,0,0)" xlink:href="#ab"/><use transform="matrix(0.05,0,0,0.05,11.65,0)" xlink:href="#W"/><use transform="matrix(0.05,0,0,0.05,15.600000000000001,0)" xlink:href="#J"/><use transform="matrix(0.05,0,0,0.05,25.6,0)" xlink:href="#ac"/></g><path fill="#333" d="M24 0v-261h32V0H24" id="ad"/><g id="j"><use transform="matrix(0.05,0,0,0.05,0,0)" xlink:href="#N"/><use transform="matrix(0.05,0,0,0.05,5.95,0)" xlink:href="#L"/><use transform="matrix(0.05,0,0,0.05,15.949999999999998,0)" xlink:href="#ad"/><use transform="matrix(0.05,0,0,0.05,19.9,0)" xlink:href="#J"/><use transform="matrix(0.05,0,0,0.05,29.899999999999995,0)" xlink:href="#M"/><use transform="matrix(0.05,0,0,0.05,38.9,0)" xlink:href="#Z"/></g><g id="k"><use transform="matrix(0.05,0,0,0.05,0,0)" xlink:href="#O"/><use transform="matrix(0.05,0,0,0.05,12.950000000000001,0)" xlink:href="#V"/></g><path fill="#333" d="M30-248c118-7 216 8 213 122C240-48 200 0 122 0H30v-248zM63-27c89 8 146-16 146-99s-60-101-146-95v194" id="ae"/><path fill="#333" d="M115-194c55 1 70 41 70 98S169 2 115 4C84 4 66-9 55-30l1 105H24l-1-265h31l2 30c10-21 28-34 59-34zm-8 174c40 0 45-34 45-75s-6-73-45-74c-42 0-51 32-51 76 0 43 10 73 51 73" id="af"/><path fill="#333" d="M179-190L93 31C79 59 56 82 12 73V49c39 6 53-20 64-50L1-190h34L92-34l54-156h33" id="ag"/><g id="l"><use transform="matrix(0.05,0,0,0.05,0,0)" xlink:href="#ae"/><use transform="matrix(0.05,0,0,0.05,12.950000000000001,0)" xlink:href="#W"/><use transform="matrix(0.05,0,0,0.05,16.900000000000002,0)" xlink:href="#M"/><use transform="matrix(0.05,0,0,0.05,25.900000000000002,0)" xlink:href="#af"/><use transform="matrix(0.05,0,0,0.05,35.900000000000006,0)" xlink:href="#ad"/><use transform="matrix(0.05,0,0,0.05,39.85000000000001,0)" xlink:href="#P"/><use transform="matrix(0.05,0,0,0.05,49.85000000000001,0)" xlink:href="#ag"/></g><path fill="#333" d="M233-177c-1 41-23 64-60 70L243 0h-38l-65-103H63V0H30v-248c88 3 205-21 203 71zM63-129c60-2 137 13 137-47 0-61-80-42-137-45v92" id="ah"/><g id="m"><use transform="matrix(0.05,0,0,0.05,0,0)" xlink:href="#ah"/><use transform="matrix(0.05,0,0,0.05,12.950000000000001,0)" xlink:href="#L"/><use transform="matrix(0.05,0,0,0.05,22.950000000000003,0)" xlink:href="#ad"/><use transform="matrix(0.05,0,0,0.05,26.900000000000002,0)" xlink:href="#J"/><use transform="matrix(0.05,0,0,0.05,36.900000000000006,0)" xlink:href="#M"/></g><path fill="#333" d="M197 0v-115H63V0H30v-248h33v105h134v-105h34V0h-34" id="ai"/><path fill="#333" d="M177-190C167-65 218 103 67 71c-23-6-38-20-44-43l32-5c15 47 100 32 89-28v-30C133-14 115 1 83 1 29 1 15-40 15-95c0-56 16-97 71-98 29-1 48 16 59 35 1-10 0-23 2-32h30zM94-22c36 0 50-32 50-73 0-42-14-75-50-75-39 0-46 34-46 75s6 73 46 73" id="aj"/><path fill="#333" d="M106-169C34-169 62-67 57 0H25v-261h32l-1 103c12-21 28-36 61-36 89 0 53 116 60 194h-32v-121c2-32-8-49-39-48" id="ak"/><g id="n"><use transform="matrix(0.05,0,0,0.05,0,0)" xlink:href="#ai"/><use transform="matrix(0.05,0,0,0.05,12.950000000000001,0)" xlink:href="#W"/><use transform="matrix(0.05,0,0,0.05,16.900000000000002,0)" xlink:href="#aj"/><use transform="matrix(0.05,0,0,0.05,26.900000000000002,0)" xlink:href="#ak"/></g><path fill="#333" d="M185-189c-5-48-123-54-124 2 14 75 158 14 163 119 3 78-121 87-175 55-17-10-28-26-33-46l33-7c5 56 141 63 141-1 0-78-155-14-162-118-5-82 145-84 179-34 5 7 8 16 11 25" id="al"/><path fill="#333" d="M96-169c-40 0-48 33-48 73s9 75 48 75c24 0 41-14 43-38l32 2c-6 37-31 61-74 61-59 0-76-41-82-99-10-93 101-131 147-64 4 7 5 14 7 22l-32 3c-4-21-16-35-41-35" id="am"/><g id="o"><use transform="matrix(0.05,0,0,0.05,0,0)" xlink:href="#al"/><use transform="matrix(0.05,0,0,0.05,12,0)" xlink:href="#am"/><use transform="matrix(0.05,0,0,0.05,21,0)" xlink:href="#V"/><use transform="matrix(0.05,0,0,0.05,31,0)" xlink:href="#N"/><use transform="matrix(0.05,0,0,0.05,36.95,0)" xlink:href="#J"/><use transform="matrix(0.05,0,0,0.05,46.95,0)" xlink:href="#M"/><use transform="matrix(0.05,0,0,0.05,55.95,0)" xlink:href="#Z"/></g><g id="p"><use transform="matrix(0.05,0,0,0.05,0,0)" xlink:href="#ae"/><use transform="matrix(0.05,0,0,0.05,12.950000000000001,0)" xlink:href="#W"/><use transform="matrix(0.05,0,0,0.05,16.900000000000002,0)" xlink:href="#M"/><use transform="matrix(0.05,0,0,0.05,25.900000000000002,0)" xlink:href="#af"/><use transform="matrix(0.05,0,0,0.05,35.900000000000006,0)" xlink:href="#ad"/><use transform="matrix(0.05,0,0,0.05,39.85000000000001,0)" xlink:href="#P"/><use transform="matrix(0.05,0,0,0.05,49.85000000000001,0)" xlink:href="#ag"/></g><g id="q"><use transform="matrix(0.05,0,0,0.05,0,0)" xlink:href="#ai"/><use transform="matrix(0.05,0,0,0.05,12.950000000000001,0)" xlink:href="#W"/><use transform="matrix(0.05,0,0,0.05,16.900000000000002,0)" xlink:href="#aj"/><use transform="matrix(0.05,0,0,0.05,26.900000000000002,0)" xlink:href="#ak"/><use transform="matrix(0.05,0,0,0.05,36.900000000000006,0)" xlink:href="#M"/><use transform="matrix(0.05,0,0,0.05,45.900000000000006,0)" xlink:href="#am"/><use transform="matrix(0.05,0,0,0.05,54.900000000000006,0)" xlink:href="#V"/><use transform="matrix(0.05,0,0,0.05,64.9,0)" xlink:href="#N"/><use transform="matrix(0.05,0,0,0.05,70.85000000000001,0)" xlink:href="#J"/><use transform="matrix(0.05,0,0,0.05,80.85000000000001,0)" xlink:href="#M"/></g><path fill="#333" d="M30 0v-248h33v221h125V0H30" id="an"/><path fill="#333" d="M108 0H70L1-190h34L89-25l56-165h34" id="ao"/><g id="r"><use transform="matrix(0.05,0,0,0.05,0,0)" xlink:href="#an"/><use transform="matrix(0.05,0,0,0.05,10,0)" xlink:href="#J"/><use transform="matrix(0.05,0,0,0.05,20,0)" xlink:href="#ao"/><use transform="matrix(0.05,0,0,0.05,29,0)" xlink:href="#J"/><use transform="matrix(0.05,0,0,0.05,39,0)" xlink:href="#ad"/></g><path fill="#333" d="M140-251c81 0 123 46 123 126C263-46 219 4 140 4 59 4 17-45 17-125s42-126 123-126zm0 227c63 0 89-41 89-101s-29-99-89-99c-61 0-89 39-89 99S79-25 140-24" id="ap"/><path fill="#333" d="M117-194c89-4 53 116 60 194h-32v-121c0-31-8-49-39-48C34-167 62-67 57 0H25l-1-190h30c1 10-1 24 2 32 11-22 29-35 61-36" id="aq"/><g id="s"><use transform="matrix(0.05,0,0,0.05,0,0)" xlink:href="#ap"/><use transform="matrix(0.05,0,0,0.05,14,0)" xlink:href="#aq"/><use transform="matrix(0.05,0,0,0.05,24,0)" xlink:href="#J"/></g><g id="t"><use transform="matrix(0.05,0,0,0.05,0,0)" xlink:href="#Y"/><use transform="matrix(0.05,0,0,0.05,14,0)" xlink:href="#L"/><use transform="matrix(0.05,0,0,0.05,24,0)" xlink:href="#J"/><use transform="matrix(0.05,0,0,0.05,34,0)" xlink:href="#M"/><use transform="matrix(0.05,0,0,0.05,43,0)" xlink:href="#K"/><use transform="matrix(0.05,0,0,0.05,48,0)" xlink:href="#W"/><use transform="matrix(0.05,0,0,0.05,51.95,0)" xlink:href="#V"/><use transform="matrix(0.05,0,0,0.05,61.95,0)" xlink:href="#aq"/><use transform="matrix(0.05,0,0,0.05,71.95,0)" xlink:href="#M"/></g><path fill="#333" d="M30-248c87 1 191-15 191 75 0 78-77 80-158 76V0H30v-248zm33 125c57 0 124 11 124-50 0-59-68-47-124-48v98" id="ar"/><g id="u"><use transform="matrix(0.05,0,0,0.05,0,0)" xlink:href="#ar"/><use transform="matrix(0.05,0,0,0.05,12,0)" xlink:href="#P"/><use transform="matrix(0.05,0,0,0.05,22,0)" xlink:href="#M"/><use transform="matrix(0.05,0,0,0.05,31,0)" xlink:href="#M"/></g><g id="v"><use transform="matrix(0.05,0,0,0.05,0,0)" xlink:href="#an"/><use transform="matrix(0.05,0,0,0.05,10,0)" xlink:href="#ao"/><use transform="matrix(0.05,0,0,0.05,19,0)" xlink:href="#ad"/></g><path fill="#333" d="M27 0v-27h64v-190l-56 39v-29l58-41h29v221h61V0H27" id="as"/><g id="w"><use transform="matrix(0.05,0,0,0.05,0,0)" xlink:href="#as"/><use transform="matrix(0.05,0,0,0.05,10,0)" xlink:href="#Z"/></g><path fill="#333" d="M127-220V0H93v-220H8v-28h204v28h-85" id="at"/><g id="x"><use transform="matrix(0.05,0,0,0.05,0,0)" xlink:href="#at"/><use transform="matrix(0.05,0,0,0.05,9.950000000000001,0)" xlink:href="#ac"/><use transform="matrix(0.05,0,0,0.05,22.900000000000002,0)" xlink:href="#V"/></g><path fill="#333" d="M126-127c33 6 58 20 58 59 0 88-139 92-164 29-3-8-5-16-6-25l32-3c6 27 21 44 54 44 32 0 52-15 52-46 0-38-36-46-79-43v-28c39 1 72-4 72-42 0-27-17-43-46-43-28 0-47 15-49 41l-32-3c6-42 35-63 81-64 48-1 79 21 79 65 0 36-21 52-52 59" id="au"/><g id="y"><use transform="matrix(0.05,0,0,0.05,0,0)" xlink:href="#au"/><use transform="matrix(0.05,0,0,0.05,10,0)" xlink:href="#Z"/></g><g id="z"><use transform="matrix(0.05,0,0,0.05,0,0)" xlink:href="#at"/><use transform="matrix(0.05,0,0,0.05,10.950000000000001,0)" xlink:href="#ak"/><use transform="matrix(0.05,0,0,0.05,20.950000000000003,0)" xlink:href="#N"/><use transform="matrix(0.05,0,0,0.05,26.900000000000002,0)" xlink:href="#J"/><use transform="matrix(0.05,0,0,0.05,36.900000000000006,0)" xlink:href="#J"/></g><path fill="#333" d="M30 0v-248h187v28H63v79h144v27H63v87h162V0H30" id="av"/><path fill="#333" d="M85-194c31 0 48 13 60 33l-1-100h32l1 261h-30c-2-10 0-23-3-31C134-8 116 4 85 4 32 4 16-35 15-94c0-66 23-100 70-100zm9 24c-40 0-46 34-46 75 0 40 6 74 45 74 42 0 51-32 51-76 0-42-9-74-50-73" id="aw"/><g id="A"><use transform="matrix(0.05,0,0,0.05,0,0)" xlink:href="#av"/><use transform="matrix(0.05,0,0,0.05,12,0)" xlink:href="#aq"/><use transform="matrix(0.05,0,0,0.05,22,0)" xlink:href="#aw"/></g><g id="B"><use transform="matrix(0.05,0,0,0.05,0,0)" xlink:href="#al"/><use transform="matrix(0.05,0,0,0.05,12,0)" xlink:href="#am"/><use transform="matrix(0.05,0,0,0.05,21,0)" xlink:href="#V"/><use transform="matrix(0.05,0,0,0.05,31,0)" xlink:href="#N"/><use transform="matrix(0.05,0,0,0.05,36.95,0)" xlink:href="#J"/></g><path fill="#333" d="M160-131c35 5 61 23 61 61C221 17 115-2 30 0v-248c76 3 177-17 177 60 0 33-19 50-47 57zm-97-11c50-1 110 9 110-42 0-47-63-36-110-37v79zm0 115c55-2 124 14 124-45 0-56-70-42-124-44v89" id="ax"/><g id="C"><use transform="matrix(0.05,0,0,0.05,0,0)" xlink:href="#ax"/><use transform="matrix(0.05,0,0,0.05,12,0)" xlink:href="#J"/><use transform="matrix(0.05,0,0,0.05,22,0)" xlink:href="#P"/><use transform="matrix(0.05,0,0,0.05,32,0)" xlink:href="#K"/></g><g id="D"><use transform="matrix(0.05,0,0,0.05,0,0)" xlink:href="#al"/><use transform="matrix(0.05,0,0,0.05,12,0)" xlink:href="#am"/><use transform="matrix(0.05,0,0,0.05,21,0)" xlink:href="#V"/><use transform="matrix(0.05,0,0,0.05,31,0)" xlink:href="#N"/><use transform="matrix(0.05,0,0,0.05,36.95,0)" xlink:href="#J"/><use transform="matrix(0.05,0,0,0.05,46.95,0)" xlink:href="#Z"/></g></defs></g></svg>